<svg xmlns="http://www.w3.org/2000/svg" xmlns:xlink="http://www.w3.org/1999/xlink" width="800" zoomAndPan="magnify" viewBox="0 0 600 599.999999" height="800" preserveAspectRatio="xMidYMid meet" version="1.0"><defs><clipPath id="4f3516c35e"><path d="M 194.835938 180 L 404.835938 180 L 404.835938 420 L 194.835938 420 Z M 194.835938 180 " clip-rule="nonzero"/></clipPath></defs><g clip-path="url(#4f3516c35e)"><path fill="#c69749" d="M 213.929688 395.476562 L 194.777344 180.679688 L 405.210938 180.679688 L 386.046875 395.449219 L 299.859375 419.328125 Z M 213.929688 395.476562 " fill-opacity="1" fill-rule="nonzero"/></g><path fill="#d1ab6d" d="M 369.628906 381.769531 L 386.015625 198.242188 L 299.996094 198.242188 L 299.996094 401.078125 Z M 369.628906 381.769531 " fill-opacity="1" fill-rule="nonzero"/><path fill="#000000" d="M 299.90625 224.585938 L 233.929688 224.585938 L 241.039062 304.25 L 299.996094 304.25 L 299.996094 277.910156 L 265.136719 277.910156 L 262.726562 250.933594 L 299.996094 250.933594 L 299.996094 224.585938 Z M 299.996094 346.238281 L 299.882812 346.269531 L 270.542969 338.347656 L 268.679688 317.339844 L 242.21875 317.339844 L 245.910156 358.703125 L 299.875 373.617188 L 299.996094 373.582031 Z M 299.996094 346.238281 " fill-opacity="1" fill-rule="nonzero"/><path fill="#545454" d="M 299.90625 304.25 L 332.347656 304.25 L 329.363281 338.410156 L 299.980469 346.335938 L 299.980469 373.746094 L 353.992188 358.777344 L 361.226562 277.894531 L 299.996094 277.894531 Z M 365.265625 231.65625 L 365.894531 224.585938 L 299.890625 224.585938 L 299.890625 250.925781 L 363.523438 250.925781 L 364.042969 245.003906 Z M 365.265625 231.65625 " fill-opacity="1" fill-rule="nonzero"/></svg>