<svg xmlns="http://www.w3.org/2000/svg" xmlns:xlink="http://www.w3.org/1999/xlink" width="800" zoomAndPan="magnify" viewBox="0 0 600 599.999999" height="800" preserveAspectRatio="xMidYMid meet" version="1.0"><defs><clipPath id="9f8fdcad0f"><path d="M 264 159.382812 L 364 159.382812 L 364 323 L 264 323 Z M 264 159.382812 " clip-rule="nonzero"/></clipPath></defs><path fill="#c69749" d="M 264.492188 374.785156 C 264.492188 374.785156 253.785156 381.300781 271.9375 383.164062 C 293.792969 385.949219 305.433594 385.488281 329.621094 380.839844 C 334.492188 383.820312 339.609375 386.304688 344.96875 388.28125 C 290.550781 411.546875 221.683594 386.890625 264.484375 374.785156 Z M 257.527344 344.546875 C 257.527344 344.546875 245.894531 353.386719 264.039062 355.257812 C 287.765625 357.582031 306.371094 358.042969 338.484375 351.539062 C 341.648438 354.75 345.371094 357.074219 349.644531 358.515625 C 284.046875 378.050781 210.546875 360.378906 257.527344 344.558594 Z M 385.925781 397.574219 C 385.925781 397.574219 393.832031 404.085938 377.089844 409.203125 C 345.917969 418.519531 246.367188 421.308594 218.453125 409.203125 C 208.683594 405.023438 227.289062 398.972656 233.253906 398.042969 C 239.304688 396.648438 242.570312 396.648438 242.570312 396.648438 C 231.859375 389.207031 171.394531 412 211.871094 418.503906 C 323.054688 436.648438 414.703125 410.597656 385.855469 397.574219 Z M 269.527344 312.910156 C 269.527344 312.910156 218.816406 325.011719 251.382812 329.191406 C 265.339844 331.054688 292.78125 330.582031 318.371094 328.726562 C 339.300781 326.863281 360.25 323.15625 360.25 323.15625 C 360.25 323.15625 352.804688 326.414062 347.6875 329.667969 C 296.054688 343.164062 196.957031 337.113281 225.339844 323.15625 C 249.527344 311.523438 269.535156 312.925781 269.535156 312.925781 Z M 360.25 363.617188 C 412.351562 336.625 388.164062 310.59375 371.410156 313.839844 C 367.234375 314.773438 365.359375 315.703125 365.359375 315.703125 C 365.359375 315.703125 366.753906 312.917969 370.011719 311.984375 C 403.042969 300.351562 429.09375 346.875 359.300781 365.007812 C 359.300781 365.007812 359.761719 364.546875 360.234375 363.617188 Z M 274.664062 437.117188 C 324.902344 440.375 401.667969 435.253906 403.523438 411.519531 C 403.523438 411.519531 399.804688 420.835938 362.121094 427.800781 C 319.320312 435.707031 266.285156 434.765625 235.117188 429.664062 C 235.117188 429.664062 241.628906 435.238281 274.664062 437.109375 Z M 274.664062 437.117188 " fill-opacity="1" fill-rule="nonzero"/><g clip-path="url(#9f8fdcad0f)"><path fill="#c69749" d="M 328.695312 159.390625 C 328.695312 159.390625 357.542969 188.699219 301.253906 232.894531 C 256.125 268.714844 291.023438 289.183594 301.253906 312.445312 C 274.734375 288.722656 255.664062 267.78125 268.691406 248.253906 C 287.757812 219.398438 340.328125 205.527344 328.695312 159.390625 Z M 313.894531 292.910156 C 327.390625 308.257812 310.175781 322.214844 310.175781 322.214844 C 310.175781 322.214844 344.605469 304.542969 328.785156 282.667969 C 314.367188 261.738281 303.1875 251.5 363.671875 216.613281 C 363.671875 216.613281 268.308594 240.339844 313.894531 292.910156 Z M 313.894531 292.910156 " fill-opacity="1" fill-rule="nonzero"/></g></svg>