<svg xmlns="http://www.w3.org/2000/svg" xmlns:xlink="http://www.w3.org/1999/xlink" width="800" zoomAndPan="magnify" viewBox="0 0 600 599.999999" height="800" preserveAspectRatio="xMidYMid meet" version="1.0"><path fill="#c69749" d="M 391.980469 198.554688 C 388.8125 206.15625 384.796875 213.28125 379.933594 219.925781 C 378.613281 218.601562 377.265625 217.3125 375.882812 216.054688 C 374.5 214.796875 373.085938 213.578125 371.644531 212.390625 C 370.203125 211.203125 368.730469 210.050781 367.230469 208.9375 C 365.730469 207.824219 364.207031 206.75 362.652344 205.710938 C 361.097656 204.671875 359.519531 203.671875 357.917969 202.710938 C 356.316406 201.753906 354.691406 200.832031 353.042969 199.953125 C 351.394531 199.074219 349.726562 198.234375 348.035156 197.4375 C 346.347656 196.640625 344.636719 195.886719 342.910156 195.175781 C 341.183594 194.460938 339.441406 193.792969 337.679688 193.167969 C 335.917969 192.539062 334.144531 191.960938 332.355469 191.421875 C 330.566406 190.882812 328.765625 190.390625 326.953125 189.941406 C 325.140625 189.492188 323.316406 189.089844 321.480469 188.730469 C 319.648438 188.371094 317.808594 188.058594 315.957031 187.792969 C 314.109375 187.527344 312.253906 187.304688 310.394531 187.128906 C 308.535156 186.953125 306.671875 186.824219 304.804688 186.742188 C 302.9375 186.660156 301.070312 186.621094 299.203125 186.632812 C 297.335938 186.640625 295.46875 186.699219 293.601562 186.800781 C 291.738281 186.902344 289.875 187.050781 288.019531 187.246094 C 286.160156 187.4375 284.308594 187.679688 282.460938 187.964844 C 280.617188 188.25 278.777344 188.582031 276.949219 188.960938 C 275.117188 189.339844 273.300781 189.761719 271.492188 190.226562 C 269.683594 190.695312 267.886719 191.207031 266.101562 191.761719 C 264.320312 192.320312 262.550781 192.917969 260.796875 193.5625 C 259.042969 194.207031 257.304688 194.894531 255.585938 195.625 C 253.867188 196.355469 252.167969 197.128906 250.484375 197.941406 C 248.804688 198.757812 247.144531 199.613281 245.503906 200.507812 C 243.867188 201.40625 242.25 202.339844 240.65625 203.316406 C 239.066406 204.292969 237.496094 205.308594 235.957031 206.363281 C 234.414062 207.417969 232.898438 208.511719 231.410156 209.640625 C 229.921875 210.769531 228.460938 211.933594 227.03125 213.136719 C 225.601562 214.339844 224.203125 215.574219 222.832031 216.84375 C 221.464844 218.117188 220.125 219.421875 218.824219 220.757812 C 217.519531 222.09375 216.246094 223.464844 215.011719 224.863281 C 213.773438 226.265625 212.574219 227.695312 211.40625 229.15625 C 210.242188 230.613281 209.113281 232.101562 208.019531 233.617188 C 206.929688 235.132812 205.875 236.675781 204.859375 238.242188 C 203.84375 239.8125 202.867188 241.402344 201.929688 243.019531 C 200.992188 244.636719 200.097656 246.273438 199.242188 247.933594 C 198.386719 249.597656 197.570312 251.277344 196.800781 252.976562 C 196.027344 254.679688 195.296875 256.398438 194.609375 258.136719 C 193.921875 259.871094 193.277344 261.625 192.679688 263.394531 C 192.078125 265.164062 191.523438 266.945312 191.011719 268.742188 C 190.5 270.539062 190.03125 272.347656 189.609375 274.167969 C 189.1875 275.988281 188.808594 277.816406 188.476562 279.65625 C 188.148438 281.492188 187.859375 283.339844 187.621094 285.191406 C 187.378906 287.046875 187.1875 288.902344 187.039062 290.765625 C 186.890625 292.628906 186.789062 294.492188 186.730469 296.359375 C 186.675781 298.226562 186.667969 300.09375 186.703125 301.960938 C 186.738281 303.828125 186.824219 305.695312 186.953125 307.558594 C 187.082031 309.421875 187.257812 311.28125 187.476562 313.136719 C 187.699219 314.992188 187.964844 316.839844 188.277344 318.683594 C 188.59375 320.523438 188.949219 322.355469 189.355469 324.179688 C 189.757812 326.003906 190.207031 327.816406 190.699219 329.621094 C 191.195312 331.421875 191.730469 333.210938 192.3125 334.984375 C 192.894531 336.761719 193.523438 338.519531 194.191406 340.265625 C 194.859375 342.007812 195.574219 343.734375 196.328125 345.445312 C 197.082031 347.152344 197.878906 348.839844 198.71875 350.511719 C 199.554688 352.179688 200.4375 353.828125 201.355469 355.453125 C 202.277344 357.078125 203.238281 358.679688 204.234375 360.257812 C 205.234375 361.839844 206.273438 363.390625 207.351562 364.917969 C 208.425781 366.445312 209.539062 367.941406 210.691406 369.414062 C 211.84375 370.886719 213.027344 372.328125 214.25 373.742188 C 215.472656 375.152344 216.730469 376.535156 218.019531 377.886719 C 219.3125 379.238281 220.636719 380.554688 221.992188 381.839844 L 226.171875 385.53125 C 228.152344 387.199219 230.191406 388.800781 232.28125 390.328125 C 234.375 391.859375 236.515625 393.316406 238.707031 394.699219 C 240.898438 396.082031 243.136719 397.386719 245.417969 398.617188 C 247.703125 399.84375 250.023438 400.992188 252.382812 402.0625 C 254.746094 403.132812 257.140625 404.117188 259.570312 405.023438 C 261.996094 405.925781 264.453125 406.746094 266.941406 407.480469 C 269.425781 408.21875 271.933594 408.867188 274.460938 409.429688 C 276.992188 409.992188 279.539062 410.46875 282.101562 410.855469 C 284.664062 411.242188 287.238281 411.542969 289.820312 411.753906 C 292.402344 411.964844 294.988281 412.085938 297.582031 412.121094 C 300.171875 412.152344 302.761719 412.097656 305.351562 411.953125 C 307.9375 411.808594 310.519531 411.574219 313.089844 411.25 C 315.660156 410.929688 318.21875 410.515625 320.761719 410.019531 C 323.304688 409.519531 325.828125 408.9375 328.332031 408.261719 C 330.835938 407.589844 333.3125 406.835938 335.761719 405.992188 C 338.214844 405.148438 340.632812 404.222656 343.019531 403.214844 C 345.410156 402.207031 347.757812 401.117188 350.070312 399.949219 C 352.382812 398.777344 354.652344 397.527344 356.878906 396.203125 C 359.105469 394.875 361.285156 393.472656 363.414062 392 C 365.546875 390.523438 367.621094 388.972656 369.644531 387.355469 C 371.671875 385.738281 373.636719 384.050781 375.542969 382.296875 C 377.453125 380.542969 379.296875 378.722656 381.078125 376.84375 C 382.863281 374.960938 384.578125 373.019531 386.226562 371.023438 C 387.878906 369.023438 389.457031 366.96875 390.964844 364.863281 C 392.472656 362.753906 393.90625 360.597656 395.265625 358.390625 C 396.625 356.183594 397.910156 353.933594 399.113281 351.640625 C 400.320312 349.34375 401.445312 347.011719 402.488281 344.640625 C 403.53125 342.265625 404.496094 339.863281 405.375 337.425781 C 406.253906 334.984375 407.046875 332.519531 407.757812 330.027344 C 408.46875 327.535156 409.089844 325.019531 409.625 322.484375 C 410.164062 319.949219 410.613281 317.398438 410.972656 314.832031 C 411.335938 312.265625 411.609375 309.691406 411.792969 307.105469 C 414.875 278.3125 406.421875 241.871094 391.984375 198.558594 Z M 238.078125 382.496094 C 237.679688 382.988281 237.234375 383.4375 236.746094 383.84375 C 236.257812 384.25 235.734375 384.605469 235.179688 384.910156 C 234.621094 385.210938 234.039062 385.457031 233.429688 385.648438 C 232.824219 385.835938 232.207031 385.960938 231.574219 386.027344 C 230.941406 386.09375 230.308594 386.097656 229.675781 386.042969 C 229.046875 385.984375 228.425781 385.863281 227.816406 385.683594 C 227.207031 385.503906 226.621094 385.265625 226.058594 384.96875 C 225.496094 384.671875 224.96875 384.324219 224.476562 383.925781 C 223.980469 383.527344 223.53125 383.082031 223.125 382.59375 C 222.71875 382.105469 222.367188 381.582031 222.0625 381.023438 C 221.757812 380.464844 221.515625 379.882812 221.324219 379.277344 C 221.136719 378.667969 221.011719 378.050781 220.945312 377.417969 C 220.878906 376.789062 220.875 376.15625 220.933594 375.523438 C 220.992188 374.890625 221.109375 374.269531 221.292969 373.660156 C 221.472656 373.050781 221.710938 372.464844 222.007812 371.90625 C 222.300781 371.34375 222.648438 370.816406 223.050781 370.320312 C 223.449219 369.828125 223.894531 369.378906 224.382812 368.972656 C 224.871094 368.566406 225.394531 368.210938 225.953125 367.910156 C 226.511719 367.605469 227.09375 367.363281 227.703125 367.175781 C 228.308594 366.984375 228.925781 366.859375 229.558594 366.792969 C 230.191406 366.726562 230.824219 366.722656 231.457031 366.78125 C 232.085938 366.839844 232.707031 366.960938 233.316406 367.140625 C 233.925781 367.324219 234.511719 367.5625 235.074219 367.859375 C 235.636719 368.152344 236.164062 368.503906 236.65625 368.902344 C 237.148438 369.300781 237.597656 369.746094 238.003906 370.234375 C 238.40625 370.722656 238.761719 371.246094 239.0625 371.804688 C 239.367188 372.359375 239.609375 372.941406 239.800781 373.546875 C 239.988281 374.15625 240.113281 374.773438 240.179688 375.402344 C 240.246094 376.035156 240.25 376.667969 240.191406 377.296875 C 240.132812 377.929688 240.015625 378.550781 239.835938 379.160156 C 239.652344 379.765625 239.417969 380.351562 239.121094 380.914062 C 238.824219 381.476562 238.476562 382.003906 238.078125 382.496094 Z M 391.515625 348.628906 C 363.605469 385.808594 304.011719 373.261719 265.800781 375.066406 C 265.800781 375.066406 259.027344 375.464844 252.207031 376.582031 C 252.207031 376.582031 254.78125 375.488281 258.070312 374.246094 C 284.902344 364.90625 297.585938 363.109375 313.886719 354.722656 C 344.574219 339.117188 374.933594 304.953125 381.242188 269.433594 C 369.566406 303.601562 334.109375 332.984375 301.839844 344.917969 C 279.722656 353.066406 239.765625 361.007812 239.765625 361.007812 L 238.152344 360.144531 C 210.96875 346.929688 210.128906 288.050781 259.570312 269.0625 C 281.21875 260.722656 301.929688 265.300781 325.3125 259.722656 C 350.277344 253.789062 379.160156 235.085938 390.914062 210.679688 C 404.058594 249.726562 419.898438 310.84375 391.5 348.652344 Z M 391.515625 348.628906 " fill-opacity="1" fill-rule="nonzero"/></svg>